# xmcd CD database file
#
# Track frame offsets:
#	150
#	20338
#	42548
#	60273
#	83040
#	113073
#	138843
#	164975
#	181835
#	202985
#	227746
#	247934
#	270144
#	287869
#
# Disc length: 4141 seconds
#
# Revision: 0
# Processed by: cddbd v1.5PL3 Copyright (c) Steve Scherf et al.
# Submitted via: CDex 1.40Release
#
DISCID=b5102b0e
DTITLE=Diana Krall - The Look of Love
DYEAR=2001
DGENRE=Blues
TTITLE0=S'Wonderful
TTITLE1=Love Letters
TTITLE2=I Remember You
TTITLE3=Cry Me a River
TTITLE4=Besame Mucho
TTITLE5=The Night We Called it a Day
TTITLE6=Dancing in the Dark
TTITLE7=I Get Along Without You Very Well
TTITLE8=The Look of Love
TTITLE9=Maybe You'll Be There
TTITLE10=No lo sé
TTITLE11=Love Letters_1
TTITLE12=I Remember You_1
TTITLE13=Cry Me a River_1
EXTD=YEAR: 2001 ID3G: 0
EXTT0=
EXTT1=
EXTT2=
EXTT3=
EXTT4=
EXTT5=
EXTT6=
EXTT7=
EXTT8=
EXTT9=
EXTT10=
EXTT11=
EXTT12=
EXTT13=
PLAYORDER=
